<svg xmlns="http://www.w3.org/2000/svg" viewBox="319.68 18.08 118.05 119.47"><g id="freepik--speech-bubble--inject-79"><path d="M380,22.66a57.18,57.18,0,0,0-39.52,98.51l-8.14,15.2,20-6.48A57.19,57.19,0,1,0,380,22.66Z" style="fill:#263238"/><path d="M380,137.55a57.64,57.64,0,0,1-27.75-7.12l-19.76,6.41a.53.53,0,0,1-.54-.15.5.5,0,0,1-.05-.56l8-14.86a57.69,57.69,0,1,1,97.83-41.42A57.76,57.76,0,0,1,380,137.55Zm-27.7-8.16a.42.42,0,0,1,.24.07,56.7,56.7,0,1,0-29.23-49.61,56.22,56.22,0,0,0,17.51,41,.52.52,0,0,1,.1.6l-7.55,14.1,18.77-6.09Z" style="fill:#263238"/><path d="M377.31,18.58a57.18,57.18,0,0,0-39.52,98.51l-8.14,15.19,20-6.47A57.19,57.19,0,1,0,377.31,18.58Z" style="fill:#fff"/><path d="M377.31,133.46a57.8,57.8,0,0,1-27.75-7.11l-19.75,6.41a.51.51,0,0,1-.54-.16.52.52,0,0,1-.06-.56l8-14.85a57.69,57.69,0,1,1,40.14,16.27Zm-27.69-8.15a.53.53,0,0,1,.24.06,56.82,56.82,0,1,0-11.72-8.64.49.49,0,0,1,.09.59l-7.55,14.1,18.78-6.09Z" style="fill:#263238"/><g id="freepik--Code--inject-79"><path d="M358.16,99.34l-22-15.52V75.59l22-15.67v8.3L342.41,79.67l15.75,11.45Z" style="fill:#92E3A9"/><path d="M364.85,102.11,381.6,39.86h7.15l-16.83,62.25Z" style="fill:#92E3A9"/><path d="M395.43,99.34V91.12l15.83-11.53L395.43,68.22v-8.3l22.06,15.6v8.22Z" style="fill:#92E3A9"/><path d="M360.89,95.93l-22-15.52V72.19l22-15.68v8.3L345.13,76.26l15.76,11.45Z" style="fill:#263238"/><path d="M367.57,98.7l16.75-62.24h7.15L374.64,98.7Z" style="fill:#263238"/><path d="M398.15,95.93V87.71L414,76.19,398.15,64.81v-8.3l22.06,15.6v8.23Z" style="fill:#263238"/></g></g></svg>