<svg xmlns="http://www.w3.org/2000/svg" viewBox="41.61 20.14 195.69 171.34"><g id="freepik--speech-bubble--inject-56"><path d="M233.49,86a28,28,0,0,0-39.41-25.6,28,28,0,0,0-41.23-10.05,28,28,0,0,0-38.19-15.4A28,28,0,0,0,67.57,61.37,38.85,38.85,0,0,0,55.29,127a28,28,0,0,0,44.49,30.29,38.86,38.86,0,0,0,70.22,3.6,31.1,31.1,0,0,0,37-47A28,28,0,0,0,233.49,86Z" style="fill:#263238;stroke:#263238;stroke-miterlimit:10"/><ellipse cx="210.24" cy="165.5" rx="12.23" ry="9.25" transform="translate(-51.29 109) rotate(-26.02)" style="fill:#263238;stroke:#263238;stroke-miterlimit:10"/><path d="M213.45,187.59c1.68,3.44,6.73,4.43,11.28,2.21s6.87-6.81,5.19-10.25-6.73-4.43-11.28-2.21S211.77,184.15,213.45,187.59Z" style="fill:#263238;stroke:#263238;stroke-miterlimit:10"/><path d="M236.8,80a28,28,0,0,0-39.41-25.6,28,28,0,0,0-41.24-10A28,28,0,0,0,118,29,28,28,0,0,0,70.88,55.42a38.86,38.86,0,0,0-12.29,65.66,28,28,0,0,0,44.5,30.29A38.86,38.86,0,0,0,173.3,155a31.1,31.1,0,0,0,37-47A28,28,0,0,0,236.8,80Z" style="fill:#fff;stroke:#263238;stroke-miterlimit:10"/><ellipse cx="213.54" cy="159.55" rx="12.23" ry="9.25" transform="translate(-48.35 109.85) rotate(-26.02)" style="fill:#fff;stroke:#263238;stroke-miterlimit:10"/><path d="M216.76,181.64c1.68,3.44,6.73,4.43,11.27,2.22s6.87-6.81,5.19-10.26-6.72-4.43-11.27-2.21S215.08,178.2,216.76,181.64Z" style="fill:#fff;stroke:#263238;stroke-miterlimit:10"/></g><g id="freepik--light-bulb--inject-56"><path d="M166.26,85.78A30.07,30.07,0,1,0,113.08,105a29.54,29.54,0,0,1,6.85,18.92v4.12h32.51v-4.12a29.45,29.45,0,0,1,6.84-18.9A30,30,0,0,0,166.26,85.78Z" style="fill:#92E3A9;stroke:#263238;stroke-miterlimit:10"/><circle cx="136.16" cy="87.84" r="19.07" style="fill:#fff;opacity:0.44"/><rect x="119.93" y="128.07" width="32.51" height="8.04" style="fill:#7d7d7d;stroke:#263238;stroke-linecap:round;stroke-linejoin:round"/><path d="M119.93,136.13h32.51a0,0,0,0,1,0,0v3.32a4.73,4.73,0,0,1-4.73,4.73H124.66a4.73,4.73,0,0,1-4.73-4.73v-3.32A0,0,0,0,1,119.93,136.13Z" style="fill:#7d7d7d;stroke:#263238;stroke-linecap:round;stroke-linejoin:round"/><path d="M124,144.16h24.3a0,0,0,0,1,0,0v1.63a6.41,6.41,0,0,1-6.41,6.41H130.44a6.41,6.41,0,0,1-6.41-6.41v-1.63A0,0,0,0,1,124,144.16Z" style="fill:#fff;stroke:#263238;stroke-linecap:round;stroke-linejoin:round"/><line x1="170.52" y1="85.94" x2="184.3" y2="85.94" style="fill:none;stroke:#263238;stroke-linecap:round;stroke-linejoin:round"/><line x1="86.78" y1="85.94" x2="100.73" y2="85.94" style="fill:none;stroke:#263238;stroke-linecap:round;stroke-linejoin:round"/><line x1="135.54" y1="51" x2="135.54" y2="37.18" style="fill:none;stroke:#263238;stroke-linecap:round;stroke-linejoin:round"/><line x1="160.51" y1="60.97" x2="170.02" y2="51.46" style="fill:none;stroke:#263238;stroke-linecap:round;stroke-linejoin:round"/><line x1="101.06" y1="120.42" x2="110.71" y2="110.77" style="fill:none;stroke:#263238;stroke-linecap:round;stroke-linejoin:round"/><line x1="110.3" y1="60.7" x2="101.06" y2="51.46" style="fill:none;stroke:#263238;stroke-linecap:round;stroke-linejoin:round"/><line x1="170.02" y1="120.42" x2="160.82" y2="111.22" style="fill:none;stroke:#263238;stroke-linecap:round;stroke-linejoin:round"/></g></svg>