<svg width="323" height="158" viewBox="0 0 323 158" fill="none" xmlns="http://www.w3.org/2000/svg">
<g filter="url(#filter0_d_3_23)">
<path d="M5 11C5 5.47716 9.47715 1 15 1H308C313.523 1 318 5.47715 318 11V139C318 144.523 313.523 149 308 149H15C9.47715 149 5 144.523 5 139V11Z" fill="white"/>
<path d="M308 0.5H15C9.20101 0.5 4.5 5.20101 4.5 11V139C4.5 144.799 9.201 149.5 15 149.5H308C313.799 149.5 318.5 144.799 318.5 139V11C318.5 5.20101 313.799 0.5 308 0.5Z" stroke="black"/>
<path d="M308 0.5H15C9.20101 0.5 4.5 5.20101 4.5 11V139C4.5 144.799 9.201 149.5 15 149.5H308C313.799 149.5 318.5 144.799 318.5 139V11C318.5 5.20101 313.799 0.5 308 0.5Z" stroke="black"/>
</g>
<path d="M5 11C5 5.47715 9.47715 1 15 1H308C313.523 1 318 5.47715 318 11V47H5V11Z" fill="#A2D2FF"/>
<rect x="102" y="118" width="175.052" height="10" rx="5" fill="#D9D9D9"/>
<rect x="102" y="68" width="175.052" height="10" rx="5" fill="#D9D9D9"/>
<rect x="102" y="93" width="175.052" height="10" rx="5" fill="#D9D9D9"/>
<path d="M67.6239 93C67.6239 106.429 57.2763 117.25 44.5897 117.25C31.903 117.25 21.5555 106.429 21.5555 93C21.5555 79.5714 31.903 68.75 44.5897 68.75C57.2763 68.75 67.6239 79.5714 67.6239 93Z" fill="white" stroke="#C9C9C9" stroke-width="1.5"/>
<path d="M35 101C35 98.2386 37.2386 96 40 96H49.0274C51.7888 96 54.0274 98.2386 54.0274 101V109H35V101Z" fill="#D9D9D9"/>
<ellipse cx="44.5897" cy="85" rx="7.61094" ry="8" fill="#D9D9D9"/>
<defs>
<filter id="filter0_d_3_23" x="0" y="0" width="323" height="158" filterUnits="userSpaceOnUse" color-interpolation-filters="sRGB">
<feFlood flood-opacity="0" result="BackgroundImageFix"/>
<feColorMatrix in="SourceAlpha" type="matrix" values="0 0 0 0 0 0 0 0 0 0 0 0 0 0 0 0 0 0 127 0" result="hardAlpha"/>
<feOffset dy="4"/>
<feGaussianBlur stdDeviation="2"/>
<feComposite in2="hardAlpha" operator="out"/>
<feColorMatrix type="matrix" values="0 0 0 0 0 0 0 0 0 0 0 0 0 0 0 0 0 0 0.25 0"/>
<feBlend mode="normal" in2="BackgroundImageFix" result="effect1_dropShadow_3_23"/>
<feBlend mode="normal" in="SourceGraphic" in2="effect1_dropShadow_3_23" result="shape"/>
</filter>
</defs>
</svg>
