<svg width="323" height="150" viewBox="0 0 323 150" fill="none" xmlns="http://www.w3.org/2000/svg">
<g filter="url(#filter0_d_15_3)">
<path d="M5 11C5 5.47716 9.47715 1 15 1H308C313.523 1 318 5.47715 318 11V131C318 136.523 313.523 141 308 141H15C9.47715 141 5 136.523 5 131V11Z" fill="white"/>
<path d="M308 0.5H15C9.20101 0.5 4.5 5.20101 4.5 11V131C4.5 136.799 9.201 141.5 15 141.5H308C313.799 141.5 318.5 136.799 318.5 131V11C318.5 5.20101 313.799 0.5 308 0.5Z" stroke="black"/>
<path d="M308 0.5H15C9.20101 0.5 4.5 5.20101 4.5 11V131C4.5 136.799 9.201 141.5 15 141.5H308C313.799 141.5 318.5 136.799 318.5 131V11C318.5 5.20101 313.799 0.5 308 0.5Z" stroke="black"/>
</g>
<path d="M5 11C5 5.47715 9.47715 1 15 1H308C313.523 1 318 5.47715 318 11V47H5V11Z" fill="#A2D2FF"/>
<path d="M5 11C5 5.47715 9.47715 1 15 1H308C313.523 1 318 5.47715 318 11V47H5V11Z" fill="#4077F6"/>
<rect x="102" y="118" width="175.052" height="10" rx="5" fill="#D9D9D9"/>
<rect x="102" y="68" width="175.052" height="10" rx="5" fill="#D9D9D9"/>
<rect x="102" y="93" width="175.052" height="10" rx="5" fill="#D9D9D9"/>
<path d="M67.6239 93C67.6239 106.429 57.2763 117.25 44.5897 117.25C31.903 117.25 21.5555 106.429 21.5555 93C21.5555 79.5714 31.903 68.75 44.5897 68.75C57.2763 68.75 67.6239 79.5714 67.6239 93Z" fill="white" stroke="#C9C9C9" stroke-width="1.5"/>
<ellipse cx="45" cy="105.75" rx="11.8421" ry="2.25" fill="#4077F6"/>
<path d="M33.9474 86.5C33.9474 85.9477 34.3951 85.5 34.9474 85.5H55.0526C55.6049 85.5 56.0526 85.9477 56.0526 86.5V105.75H33.9474V86.5Z" fill="#4077F6"/>
<path d="M48 101C48 100.448 48.4477 100 49 100H51C51.5523 100 52 100.448 52 101V103C52 103.552 51.5523 104 51 104H49C48.4477 104 48 103.552 48 103V101Z" fill="white"/>
<path d="M48 95C48 94.4477 48.4477 94 49 94H51C51.5523 94 52 94.4477 52 95V97C52 97.5523 51.5523 98 51 98H49C48.4477 98 48 97.5523 48 97V95Z" fill="white"/>
<path d="M38 101C38 100.448 38.4477 100 39 100H41C41.5523 100 42 100.448 42 101V103C42 103.552 41.5523 104 41 104H39C38.4477 104 38 103.552 38 103V101Z" fill="white"/>
<path d="M38 95C38 94.4477 38.4477 94 39 94H41C41.5523 94 42 94.4477 42 95V97C42 97.5523 41.5523 98 41 98H39C38.4477 98 38 97.5523 38 97V95Z" fill="white"/>
<path d="M38 89C38 88.4477 38.4477 88 39 88H41C41.5523 88 42 88.4477 42 89V91C42 91.5523 41.5523 92 41 92H39C38.4477 92 38 91.5523 38 91V89Z" fill="white"/>
<path d="M48 89C48 88.4477 48.4477 88 49 88H51C51.5523 88 52 88.4477 52 89V91C52 91.5523 51.5523 92 51 92H49C48.4477 92 48 91.5523 48 91V89Z" fill="white"/>
<path d="M44.4305 78.3946C44.7731 78.1572 45.2269 78.1572 45.5695 78.3946L55.3606 85.178C56.1663 85.7362 55.7713 87 54.7911 87H35.2089C34.2287 87 33.8337 85.7362 34.6394 85.178L44.4305 78.3946Z" fill="#4077F6"/>
<defs>
<filter id="filter0_d_15_3" x="0" y="0" width="323" height="150" filterUnits="userSpaceOnUse" color-interpolation-filters="sRGB">
<feFlood flood-opacity="0" result="BackgroundImageFix"/>
<feColorMatrix in="SourceAlpha" type="matrix" values="0 0 0 0 0 0 0 0 0 0 0 0 0 0 0 0 0 0 127 0" result="hardAlpha"/>
<feOffset dy="4"/>
<feGaussianBlur stdDeviation="2"/>
<feComposite in2="hardAlpha" operator="out"/>
<feColorMatrix type="matrix" values="0 0 0 0 0 0 0 0 0 0 0 0 0 0 0 0 0 0 0.25 0"/>
<feBlend mode="normal" in2="BackgroundImageFix" result="effect1_dropShadow_15_3"/>
<feBlend mode="normal" in="SourceGraphic" in2="effect1_dropShadow_15_3" result="shape"/>
</filter>
</defs>
</svg>
