<svg xmlns="http://www.w3.org/2000/svg" viewBox="54.45 163.76 169.26 97.59"><g id="freepik--Outline--inject-32"><line x1="123.01" y1="213.21" x2="125.51" y2="213.21" style="fill:none;stroke:#263238;stroke-miterlimit:10"/><line x1="130.53" y1="213.21" x2="218.2" y2="213.21" style="fill:none;stroke:#263238;stroke-miterlimit:10;stroke-dasharray:5.010250091552734,5.010250091552734"/><line x1="220.71" y1="213.21" x2="223.21" y2="213.21" style="fill:none;stroke:#263238;stroke-miterlimit:10"/><line x1="81.88" y1="176" x2="138.41" y2="176" style="fill:none;stroke:#263238;stroke-linecap:round;stroke-linejoin:round"/><line x1="110.15" y1="203.85" x2="110.15" y2="176" style="fill:none;stroke:#263238;stroke-linecap:round;stroke-linejoin:round"/><line x1="65.35" y1="182.93" x2="65.35" y2="218.16" style="fill:none;stroke:#263238;stroke-linecap:round;stroke-linejoin:round"/><polyline points="119.75 221.86 170.94 221.86 170.94 252.82" style="fill:none;stroke:#263238;stroke-linecap:round;stroke-linejoin:round"/><line x1="138.41" y1="222.39" x2="138.41" y2="252.26" style="fill:none;stroke:#263238;stroke-linecap:round;stroke-linejoin:round"/><rect x="55.21" y="164.26" width="36.8" height="25.07" style="fill:#263238;stroke:#263238;stroke-miterlimit:10"/><rect x="124.81" y="164.26" width="36.8" height="25.07" style="fill:#92E3A9;stroke:#263238;stroke-linecap:round;stroke-linejoin:round"/><rect x="126.94" y="244.79" width="23.58" height="16.06" style="fill:#92E3A9;stroke:#263238;stroke-linecap:round;stroke-linejoin:round"/><rect x="54.95" y="210.13" width="23.58" height="16.06" style="fill:#fff;stroke:#263238;stroke-linecap:round;stroke-linejoin:round"/><rect x="157.88" y="244.79" width="23.58" height="16.06" style="fill:#263238;stroke:#263238;stroke-miterlimit:10"/><rect x="97.03" y="209.28" width="26.23" height="26.23" transform="translate(-125 143.02) rotate(-45)" style="fill:#92E3A9;stroke:#263238;stroke-linecap:round;stroke-linejoin:round"/></g></svg>