<svg width="323" height="158" viewBox="0 0 323 158" fill="none" xmlns="http://www.w3.org/2000/svg">
<g filter="url(#filter0_d_15_3)">
<path d="M5 11C5 5.47716 9.47715 1 15 1H308C313.523 1 318 5.47715 318 11V139C318 144.523 313.523 149 308 149H15C9.47715 149 5 144.523 5 139V11Z" fill="white"/>
<path d="M308 0.5H15C9.20101 0.5 4.5 5.20101 4.5 11V139C4.5 144.799 9.201 149.5 15 149.5H308C313.799 149.5 318.5 144.799 318.5 139V11C318.5 5.20101 313.799 0.5 308 0.5Z" stroke="black"/>
<path d="M308 0.5H15C9.20101 0.5 4.5 5.20101 4.5 11V139C4.5 144.799 9.201 149.5 15 149.5H308C313.799 149.5 318.5 144.799 318.5 139V11C318.5 5.20101 313.799 0.5 308 0.5Z" stroke="black"/>
</g>
<path d="M5 11C5 5.47715 9.47715 1 15 1H308C313.523 1 318 5.47715 318 11V47H5V11Z" fill="#A2D2FF"/>
<path d="M5 11C5 5.47715 9.47715 1 15 1H308C313.523 1 318 5.47715 318 11V47H5V11Z" fill="#4077F6"/>
<rect x="102" y="118" width="175.052" height="10" rx="5" fill="#D9D9D9"/>
<rect x="102" y="68" width="175.052" height="10" rx="5" fill="#D9D9D9"/>
<rect x="102" y="93" width="175.052" height="10" rx="5" fill="#D9D9D9"/>
<path d="M67.6239 93C67.6239 106.429 57.2763 117.25 44.5897 117.25C31.903 117.25 21.5555 106.429 21.5555 93C21.5555 79.5714 31.903 68.75 44.5897 68.75C57.2763 68.75 67.6239 79.5714 67.6239 93Z" fill="white" stroke="#C9C9C9" stroke-width="1.5"/>
<ellipse cx="45" cy="105.75" rx="11.8421" ry="2.25" fill="#4077F6"/>
<path d="M33.9474 86.5C33.9474 85.9477 34.3951 85.5 34.9474 85.5H55.0526C55.6049 85.5 56.0526 85.9477 56.0526 86.5V105.75H33.9474V86.5Z" fill="#4077F6"/>
<path d="M37.8947 93.25C37.8947 92.6977 38.3425 92.25 38.8947 92.25H41.6316C42.1839 92.25 42.6316 92.6977 42.6316 93.25V95.75C42.6316 96.3023 42.1839 96.75 41.6316 96.75H38.8947C38.3425 96.75 37.8947 96.3023 37.8947 95.75V93.25Z" fill="white"/>
<path d="M47.3684 93.25C47.3684 92.6977 47.8161 92.25 48.3684 92.25H51.1053C51.6576 92.25 52.1053 92.6977 52.1053 93.25V95.75C52.1053 96.3023 51.6576 96.75 51.1053 96.75H48.3684C47.8161 96.75 47.3684 96.3023 47.3684 95.75V93.25Z" fill="white"/>
<path d="M37.8947 100.75C37.8947 100.198 38.3425 99.75 38.8947 99.75H41.6316C42.1839 99.75 42.6316 100.198 42.6316 100.75V103.25C42.6316 103.802 42.1839 104.25 41.6316 104.25H38.8947C38.3425 104.25 37.8947 103.802 37.8947 103.25V100.75Z" fill="white"/>
<path d="M47.3684 100.75C47.3684 100.198 47.8161 99.75 48.3684 99.75H51.1053C51.6576 99.75 52.1053 100.198 52.1053 100.75V103.25C52.1053 103.802 51.6576 104.25 51.1053 104.25H48.3684C47.8161 104.25 47.3684 103.802 47.3684 103.25V100.75Z" fill="white"/>
<path d="M44.4305 78.3946C44.7731 78.1572 45.2269 78.1572 45.5695 78.3946L55.3606 85.178C56.1663 85.7362 55.7713 87 54.7911 87H35.2089C34.2287 87 33.8337 85.7362 34.6394 85.178L44.4305 78.3946Z" fill="#4077F6"/>
<defs>
<filter id="filter0_d_15_3" x="0" y="0" width="323" height="158" filterUnits="userSpaceOnUse" color-interpolation-filters="sRGB">
<feFlood flood-opacity="0" result="BackgroundImageFix"/>
<feColorMatrix in="SourceAlpha" type="matrix" values="0 0 0 0 0 0 0 0 0 0 0 0 0 0 0 0 0 0 127 0" result="hardAlpha"/>
<feOffset dy="4"/>
<feGaussianBlur stdDeviation="2"/>
<feComposite in2="hardAlpha" operator="out"/>
<feColorMatrix type="matrix" values="0 0 0 0 0 0 0 0 0 0 0 0 0 0 0 0 0 0 0.25 0"/>
<feBlend mode="normal" in2="BackgroundImageFix" result="effect1_dropShadow_15_3"/>
<feBlend mode="normal" in="SourceGraphic" in2="effect1_dropShadow_15_3" result="shape"/>
</filter>
</defs>
</svg>
